<svg width="60" height="60" viewBox="0 0 60 60" fill="none" xmlns="http://www.w3.org/2000/svg">
<path fill-rule="evenodd" clip-rule="evenodd" d="M26.7877 2.54076C27.1327 2.51448 27.5025 2.48538 27.6096 2.47604C28.0968 2.43357 30.7478 2.49177 31.416 2.55958C35.3932 2.9632 39.0752 4.18333 42.4242 6.2075C43.3428 6.7627 45.1669 8.04062 45.17 8.13113C45.1705 8.14606 44.9791 8.32048 44.7448 8.51871C43.2401 9.79127 42.3573 11.109 42.3427 12.1044L42.3377 12.4396L41.8619 12.4426C41.3143 12.4459 41.0911 12.5114 40.4129 12.8684C39.4749 13.362 38.408 14.183 37.5136 15.0992C36.8833 15.745 36.5322 16.1994 36.2585 16.7239C36.0621 17.1 35.9144 17.6431 35.9144 17.9888V18.2269L35.5143 18.2225C35.2943 18.2201 35.0266 18.2395 34.9196 18.2656C34.1383 18.4562 32.7984 19.3081 31.617 20.3653C30.8245 21.0746 30.0221 22.1339 29.7322 22.8535C29.4758 23.4899 29.482 24.0429 29.7527 24.6858L29.9039 25.0446L29.6759 25.2555C29.5294 25.3909 29.4074 25.4669 29.3345 25.4678C29.2244 25.4692 28.1687 25.3608 27.789 25.3092L27.6007 25.2836L27.6868 25.1864C27.9467 24.893 28.0781 24.3238 28.0024 23.8195C27.9114 23.2137 27.7087 22.7521 27.3071 22.2361C26.0693 20.6461 23.3981 19.7008 20.0994 19.6851L19.1854 19.6808L19.2866 19.5566C19.4072 19.4085 19.455 19.1834 19.4175 18.9409C19.3729 18.6528 18.8008 17.1032 16.7201 11.6351C15.0292 7.19131 14.8313 6.65211 14.8752 6.60674C14.9823 6.49607 16.3541 5.70536 17.1203 5.31259C20.1566 3.75638 23.5317 2.78866 26.7877 2.54076ZM9.73079 10.9048C9.78754 10.8111 11.0896 9.53752 11.5092 9.16527C11.6823 9.01174 11.8338 8.88613 11.8459 8.88613C11.8581 8.88613 11.9081 8.98165 11.957 9.09845C12.1296 9.5103 14.8158 16.1526 14.8988 16.3731L14.9029 16.3839L14.9056 16.3909C14.9245 16.4408 14.9392 16.4795 14.9298 16.4874C14.8973 16.5146 14.5783 16.1767 13.1601 14.6742L13.0128 14.5181C10.0457 11.3749 9.68594 10.9789 9.73079 10.9048ZM46.2739 16.4569C47.27 16.4407 48.911 15.4412 50.1079 14.1218C50.3068 13.9024 50.4837 13.7318 50.5011 13.7426C50.5847 13.7949 51.7851 15.7158 52.1493 16.3801C53.6657 19.1465 54.7054 22.1264 55.2255 25.1962C55.3511 25.9379 55.4776 26.9019 55.4526 26.9278C55.4204 26.961 53.9301 27.1635 53.2162 27.2318C49.9281 27.5458 46.4685 27.4665 41.5808 26.965C40.4885 26.8529 36.6821 26.4031 36.6576 26.3832C36.6501 26.377 36.8214 26.1952 37.0384 25.979C37.741 25.2791 38.5968 24.1238 38.9226 23.4354C39.0942 23.0729 39.2018 22.6723 39.2018 22.396V22.2022L39.364 22.2377C39.6989 22.3111 40.1615 22.2661 40.589 22.1186C42.1233 21.5889 43.9073 20.0048 45.007 18.1955C45.3426 17.6434 45.5032 17.2302 45.5722 16.7415L45.6211 16.3948L45.7745 16.4287C45.8589 16.4473 46.0836 16.4599 46.2739 16.4569ZM5.44444 17.0082C5.94122 16.0578 6.1129 15.7641 6.77612 14.73C7.08768 14.2443 7.35638 13.8521 7.37329 13.8584C7.41071 13.8725 10.9032 17.4197 12.9104 19.4823L14.3701 20.9823L14.2523 21.0542C14.0497 21.1779 13.5658 21.6608 13.3574 21.9473C12.7233 22.8189 12.4678 24.0954 12.7844 24.81L12.8936 25.0564L12.4117 25.1088C9.14936 25.4631 5.916 26.1339 3.04659 27.0516L2.42502 27.2504L2.45383 26.9744C2.80925 23.573 3.88239 19.9966 5.44444 17.0082ZM7.95039 40.0187C10.5841 39.6288 13.171 39.4084 16.039 39.3297C20.0785 39.2188 23.7001 39.3609 31.3078 39.9288C38.395 40.4578 40.3828 40.5647 43.9165 40.6067C47.4281 40.6485 50.2845 40.5142 53.0865 40.1754C53.4552 40.1309 53.7639 40.1013 53.7724 40.1097C53.8009 40.1379 53.2073 41.5303 52.8586 42.2534C52.0197 43.9929 50.9034 45.8019 49.7831 47.2373C48.5955 48.7589 47.0854 50.317 45.6358 51.5163C40.7236 55.5802 34.6898 57.693 28.4098 57.5481C27.099 57.5179 26.5689 57.4769 25.3835 57.3143C20.8866 56.6973 16.6413 54.8994 12.9679 52.0563C9.84066 49.6359 7.29781 46.5667 5.40417 42.9269C4.9917 42.1341 4.35832 40.7208 4.39738 40.6804C4.46343 40.6121 6.48528 40.2356 7.95039 40.0187ZM9.87336 42.4254C9.79619 42.1405 9.55743 41.8989 9.26421 41.8089C9.02981 41.737 8.46542 41.7212 8.27454 41.7811C7.44864 42.0408 7.33903 43.052 8.09452 43.442C8.2197 43.5067 8.49155 43.6053 8.69857 43.6612C9.17597 43.7901 9.30482 43.8583 9.33938 44.0008C9.40811 44.2838 9.1677 44.4883 8.76648 44.4883C8.44397 44.4883 8.29613 44.3972 8.16667 44.1189C8.08613 43.9457 8.06779 43.9327 7.90173 43.9312C7.80359 43.9303 7.665 43.9417 7.59372 43.9564C7.46707 43.9826 7.46499 43.9873 7.50301 44.1622C7.57914 44.5123 7.76522 44.7583 8.07959 44.9242C8.32493 45.0537 8.94845 45.0849 9.28285 44.9845C10.2248 44.7015 10.2575 43.4768 9.33216 43.1376C9.19072 43.0858 8.90476 42.9907 8.69662 42.9263C8.41663 42.8397 8.30006 42.7806 8.24829 42.699C8.18392 42.5975 8.18392 42.5799 8.24807 42.4787C8.28981 42.4129 8.39116 42.3483 8.5002 42.3179C8.83577 42.2245 9.1504 42.3442 9.23587 42.5975L9.28185 42.7339L9.58009 42.7118C9.74411 42.6997 9.89001 42.6777 9.90437 42.6629C9.91869 42.648 9.90476 42.5412 9.87336 42.4254ZM15.8857 42.4254C15.8086 42.1405 15.5698 41.8989 15.2766 41.8089C15.0422 41.737 14.4778 41.7212 14.2869 41.7811C13.461 42.0408 13.3514 43.052 14.1069 43.442C14.2321 43.5067 14.5039 43.6053 14.7109 43.6612C15.1883 43.7901 15.3172 43.8583 15.3518 44.0008C15.4205 44.2838 15.1801 44.4883 14.7789 44.4883C14.4563 44.4883 14.3085 44.3972 14.179 44.1189C14.0985 43.9457 14.0802 43.9327 13.9141 43.9312C13.816 43.9303 13.6774 43.9417 13.6061 43.9564C13.4794 43.9826 13.4774 43.9873 13.5154 44.1622C13.5915 44.5123 13.7776 44.7583 14.092 44.9242C14.3373 45.0537 14.9608 45.0849 15.2952 44.9845C16.2372 44.7015 16.2698 43.4768 15.3445 43.1376C15.2031 43.0858 14.9171 42.9907 14.709 42.9263C14.429 42.8397 14.3124 42.7806 14.2607 42.699C14.1963 42.5975 14.1963 42.5799 14.2604 42.4787C14.3022 42.4129 14.4035 42.3483 14.5126 42.3179C14.8481 42.2245 15.1628 42.3442 15.2482 42.5975L15.2942 42.7339L15.5925 42.7118C15.7565 42.6997 15.9024 42.6777 15.9167 42.6629C15.9311 42.648 15.9171 42.5412 15.8857 42.4254ZM23.7168 43.0579C24.2007 42.7113 24.1797 42.1036 23.6747 41.84C23.2869 41.6375 22.6773 41.7403 22.4685 42.0433C22.2848 42.3098 22.3052 42.5816 22.535 42.9316C22.6408 43.0928 22.6422 43.1023 22.5648 43.1461C22.5203 43.1714 22.3837 43.2927 22.2613 43.4156C21.9064 43.7718 21.8522 44.1729 22.1023 44.591C22.3944 45.0793 23.2373 45.2094 23.7589 44.8466C23.8778 44.7639 23.9851 44.713 23.9973 44.7334C24.0257 44.7808 24.4135 45.0471 24.4542 45.0471C24.4711 45.0471 24.5638 44.939 24.6603 44.8069L24.8358 44.5667L24.6233 44.4245C24.5065 44.3462 24.4007 44.2652 24.3882 44.2444C24.3758 44.2235 24.414 44.0989 24.4732 43.9675C24.6322 43.6147 24.6205 43.548 24.3896 43.4879C24.1033 43.4134 24.0698 43.4231 23.9978 43.6013L23.9317 43.7647L23.7388 43.5008C23.6327 43.3556 23.5454 43.2245 23.5448 43.2093C23.5442 43.1942 23.6216 43.1261 23.7168 43.0579ZM31.5006 42.4254C31.4234 42.1405 31.1847 41.8989 30.8915 41.8089C30.6571 41.737 30.0927 41.7212 29.9018 41.7811C29.0759 42.0408 28.9663 43.052 29.7218 43.442C29.8469 43.5067 30.1188 43.6053 30.3258 43.6612C30.8032 43.7901 30.9321 43.8583 30.9666 44.0008C31.0354 44.2838 30.795 44.4883 30.3937 44.4883C30.0712 44.4883 29.9234 44.3972 29.7939 44.1189C29.7134 43.9457 29.695 43.9327 29.529 43.9312C29.4308 43.9303 29.2923 43.9417 29.221 43.9564C29.0943 43.9826 29.0922 43.9873 29.1303 44.1622C29.2064 44.5123 29.3925 44.7583 29.7068 44.9242C29.9522 45.0537 30.5757 45.0849 30.9101 44.9845C31.8521 44.7015 31.8847 43.4768 30.9594 43.1376C30.818 43.0858 30.532 42.9907 30.3239 42.9263C30.0439 42.8397 29.9273 42.7806 29.8755 42.699C29.8112 42.5975 29.8112 42.5799 29.8753 42.4787C29.9171 42.4129 30.0184 42.3483 30.1274 42.3179C30.463 42.2245 30.7777 42.3442 30.8631 42.5975L30.9091 42.7339L31.2073 42.7118C31.3714 42.6997 31.5173 42.6777 31.5316 42.6629C31.5459 42.648 31.532 42.5412 31.5006 42.4254ZM11.2572 44.2285C11.1798 44.0972 11.1732 43.9959 11.173 42.9351L11.1729 41.7841H10.524V42.8731C10.524 43.472 10.5436 44.0705 10.5676 44.2029C10.6649 44.7405 11.0113 45.0073 11.6534 45.039C12.2787 45.0699 12.6592 44.9147 12.859 44.5472C12.9767 44.3309 13.0273 43.7302 13.0308 42.5104L13.0328 41.7841H12.3949L12.3764 42.9628C12.3603 43.9967 12.3486 44.1565 12.2811 44.2628C12.1746 44.4308 11.9345 44.5266 11.7022 44.4937C11.4564 44.4588 11.3588 44.4007 11.2572 44.2285ZM17.1852 43.0356V41.7841H16.5364V45.0024H17.1852V43.572H18.3964V45.0024H19.0452V41.7841H18.3964V43.0356H17.1852ZM20.2996 45.0024V41.7841H19.6507V45.0024H20.2996ZM28.7342 42.3205V41.7841H26.3984V45.0024H28.7774V44.466H27.0473V43.572H28.6044V43.0356H27.0473V42.3205H28.7342ZM34.5303 42.7536C34.5303 42.3956 34.4041 42.1293 34.1449 41.9405L33.9608 41.8064L32.1513 41.7776V45.0024H32.8001V43.7955H33.2464C33.79 43.7955 34.0706 43.7184 34.2589 43.5174C34.4497 43.3137 34.5303 43.0868 34.5303 42.7536ZM37.3851 42.3205V41.7841H35.0493V45.0024H37.4283V44.466H35.6982V43.572H37.2553V43.0356H35.6982V42.3205H37.3851ZM40.1966 42.3205V41.7841H37.7311V42.3205H38.6395V45.0024H39.2883V42.3205H40.1966ZM43.043 44.98L41.8145 41.8064L41.1266 41.7827L40.5427 43.3517C40.2215 44.2146 39.9522 44.9391 39.9443 44.9615C39.9364 44.984 40.0838 45.0024 40.2721 45.0024H40.6142L40.8551 44.2872H42.0861L42.207 44.6113C42.2735 44.7895 42.3417 44.9513 42.3585 44.9709C42.3754 44.9904 42.5363 45.0005 42.7161 44.9932L43.043 44.98ZM45.9062 42.7004C45.9062 42.3494 45.736 42.0422 45.452 41.8805C45.3446 41.8193 45.1532 41.8041 44.3382 41.7917L43.3542 41.7768V45.0024H44.003V43.6489L44.218 43.6753C44.3363 43.6898 44.4709 43.7225 44.5171 43.748C44.5633 43.7736 44.7788 44.0663 44.996 44.3985L45.3908 45.0024H46.1664L45.9435 44.6336C45.5881 44.0454 45.4856 43.9024 45.3041 43.7419L45.1334 43.5909L45.3404 43.5149C45.7047 43.3812 45.9062 43.0911 45.9062 42.7004ZM47.1606 45.0024V41.7841H46.5118V45.0024H47.1606ZM50.4828 44.98L49.2542 41.8064L48.5664 41.7827L47.9824 43.3517C47.6613 44.2146 47.392 44.9391 47.3841 44.9615C47.3761 44.984 47.5235 45.0024 47.7118 45.0024H48.054L48.2949 44.2872H49.5259L49.6468 44.6113C49.7133 44.7895 49.7815 44.9513 49.7983 44.9709C49.8152 44.9904 49.9761 45.0005 50.1559 44.9932L50.4828 44.98ZM23.0802 42.6543C22.9145 42.4562 22.8992 42.3089 23.0342 42.2113C23.1653 42.1164 23.2938 42.1239 23.4297 42.2343C23.5858 42.3612 23.5727 42.4828 23.383 42.6676L23.2223 42.8242L23.0802 42.6543ZM32.8001 43.2591V42.3205L33.0921 42.3207C33.6278 42.3212 33.8815 42.4731 33.8815 42.7933C33.8815 43.1051 33.6182 43.2559 33.0704 43.2581L32.8001 43.2591ZM44.003 43.1363V42.3205L44.468 42.3211C44.7558 42.3215 44.9742 42.3433 45.0411 42.3783C45.1851 42.4535 45.2709 42.6469 45.2351 42.8152C45.1877 43.0383 45.0489 43.0949 44.4955 43.1168L44.003 43.1363ZM41.0617 43.7321C41.0617 43.7218 41.1517 43.4594 41.2617 43.149C41.3717 42.8387 41.4665 42.5907 41.4725 42.5979C41.4784 42.6051 41.5618 42.8323 41.6578 43.1027C41.7538 43.3731 41.8459 43.6296 41.8626 43.6726C41.8901 43.7438 41.8557 43.7508 41.4773 43.7508C41.2487 43.7508 41.0617 43.7424 41.0617 43.7321ZM48.5015 43.7321C48.5015 43.7218 48.5915 43.4594 48.7015 43.149C48.8114 42.8387 48.9063 42.5907 48.9122 42.5979C48.9182 42.6051 49.0016 42.8323 49.0976 43.1027C49.1936 43.3731 49.2857 43.6296 49.3023 43.6726C49.3299 43.7438 49.2955 43.7508 48.917 43.7508C48.6885 43.7508 48.5015 43.7424 48.5015 43.7321ZM22.9166 44.4924C22.5391 44.3945 22.4751 43.9133 22.8016 43.6281C22.8648 43.5729 22.9359 43.5288 22.9597 43.53C22.9835 43.5313 23.1278 43.6953 23.2803 43.8945L23.5577 44.2568L23.4599 44.3385C23.3243 44.452 23.055 44.5283 22.9166 44.4924ZM36.6636 50.2974C40.5219 48.8558 43.6867 47.668 43.6966 47.6579C43.7066 47.6478 37.0902 47.6396 28.9937 47.6396C20.8972 47.6396 14.2809 47.6469 14.2908 47.6559C14.3007 47.665 17.7603 48.8527 21.9786 50.2954L29.6485 52.9185L36.6636 50.2974Z" fill="#CD1116"/>
<path d="M5.6477 9.0871C5.54064 9.15499 5.41473 9.29074 5.34492 9.41348C5.24128 9.59572 5.22536 9.67121 5.22536 9.98124C5.22536 10.5921 5.2745 10.6621 6.76068 12.1704C7.46261 12.8828 8.82547 14.2707 9.78923 15.2546C11.822 17.3299 14.4617 20.0076 17.9422 23.5249C19.2982 24.8953 20.799 26.4227 21.2773 26.9192C21.7556 27.4156 22.2159 27.8557 22.3003 27.8971C22.5504 28.0197 22.8081 27.9957 23.051 27.827C23.4159 27.5737 23.5609 27.2399 23.4589 26.8882C23.42 26.754 23.293 26.5889 22.9719 26.2555C22.1085 25.3589 19.8328 22.9294 19.2835 22.3178C18.9745 21.9737 18.2342 21.1793 17.6384 20.5524C16.3477 19.1944 13.8173 16.4802 13.2722 15.8691C13.0589 15.63 12.678 15.2232 12.4258 14.9651C11.7022 14.2245 9.25413 11.6116 9.07562 11.3892C8.98677 11.2786 8.50185 10.7531 7.99797 10.2214C6.91164 9.07512 6.82193 9.01285 6.22021 8.98733C5.86189 8.97213 5.81635 8.98004 5.6477 9.0871Z" fill="#1D1D1B"/>
<path d="M11.5587 3.04509C11.0063 3.25616 10.7989 3.80005 10.9761 4.57275C11.0519 4.90325 11.5545 6.19963 12.4492 8.3721C12.8237 9.28171 13.8572 11.8253 14.7458 14.0246C15.7791 16.5818 16.4192 18.1099 16.5218 18.2638C16.7241 18.5674 17.5881 19.4796 17.6734 19.4796C17.7734 19.4796 18.5553 19.2096 18.6394 19.146C18.7103 19.0925 18.706 19.0629 18.5709 18.6697C18.3324 17.9753 17.5679 15.9322 16.2229 12.395C15.5219 10.5511 14.5147 7.88601 13.9847 6.47242C13.4547 5.05884 12.9839 3.82593 12.9385 3.73264C12.8162 3.48112 12.5585 3.2056 12.3624 3.1167C12.1179 3.00589 11.7477 2.9729 11.5587 3.04509Z" fill="#1D1D1B"/>
<path d="M19.1317 20.4474C18.9057 20.4568 18.6945 20.4743 18.6624 20.4864C18.5808 20.517 18.9995 20.9912 20.4959 22.563C21.1868 23.2887 21.8064 23.9568 21.8727 24.0477C22.0321 24.2661 22.2106 24.3294 23.0462 24.4635C23.4269 24.5245 24.0886 24.6447 24.5169 24.7305C24.9451 24.8163 25.4275 24.8999 25.5888 24.9162C25.7501 24.9326 25.892 24.9625 25.9041 24.9828C25.9335 25.0318 25.81 25.2736 25.6514 25.4776C25.3668 25.8436 24.7178 26.196 24.2162 26.2569L23.9803 26.2856L24.0677 26.4626C24.1157 26.56 24.1727 26.752 24.1944 26.8892C24.216 27.0265 24.2585 27.1551 24.2887 27.1749C24.4522 27.2821 25.1227 27.1194 25.6205 26.8518C25.8645 26.7206 26.0396 26.5836 26.2244 26.3795C26.5315 26.0403 26.6342 25.8472 26.74 25.4094C26.8346 25.0183 26.8665 24.9541 27.0638 24.758C27.3765 24.4471 27.3714 23.8795 27.0499 23.2119C26.375 21.8108 24.3139 20.7956 21.5649 20.51C21.0507 20.4566 19.7274 20.4225 19.1317 20.4474Z" fill="#1D1D1B"/>
<path d="M14.7613 21.6156C14.679 21.6561 14.4446 21.8608 14.2405 22.0707C13.944 22.3754 13.833 22.5285 13.6882 22.832C13.4043 23.4273 13.3014 24.1186 13.4442 24.4717C13.4802 24.5607 13.5835 24.7162 13.6737 24.8174C13.778 24.9343 13.8582 25.0824 13.8939 25.224C14.018 25.7165 14.0844 25.8774 14.2863 26.1744C14.5272 26.5288 14.7145 26.695 15.0978 26.8942C15.6413 27.1767 15.6862 27.1812 18.1318 27.2006C19.6305 27.2126 20.369 27.2032 20.3993 27.172C20.4302 27.14 20.3231 26.9986 20.0535 26.7154C19.6727 26.3155 19.6565 26.3043 19.4081 26.2673C19.268 26.2465 18.618 26.2423 17.9638 26.2579C17.1104 26.2783 16.6863 26.2709 16.4629 26.2317C15.8494 26.1241 15.2484 25.7169 14.9744 25.2234C14.9061 25.1004 14.8501 24.9874 14.8499 24.972C14.8497 24.9567 14.9419 24.9338 15.0549 24.9211C15.3178 24.8915 16.9792 24.595 17.3907 24.5042C17.5631 24.4662 17.7043 24.4187 17.7043 24.3987C17.7043 24.3236 17.0005 23.572 16.0237 22.6039C15.4681 22.0533 14.9905 21.5891 14.9623 21.5724C14.9341 21.5556 14.8437 21.5751 14.7613 21.6156Z" fill="#1D1D1B"/>
<path fill-rule="evenodd" clip-rule="evenodd" d="M54.1439 4.48393C54.0262 4.54575 53.019 5.36967 51.9057 6.31495L49.8815 8.0336L49.6744 7.87989C49.3532 7.64146 48.9437 7.46298 48.5862 7.40559C48.148 7.33528 47.7473 7.42669 47.1761 7.7272C45.6278 8.54178 43.8032 10.2458 43.2846 11.3615C42.9863 12.0035 42.9935 12.2708 43.3307 13.0654C43.5838 13.6618 43.593 13.7001 43.4915 13.7334C43.4386 13.7508 43.2987 13.6959 43.1012 13.5802C42.6304 13.3046 42.3753 13.2148 41.9917 13.1898C41.7104 13.1715 41.594 13.1854 41.3693 13.2642C40.7821 13.4701 40.1094 13.8775 39.2166 14.568C37.7571 15.6965 36.7251 17.0155 36.6616 17.8334C36.6356 18.1687 36.6671 18.2912 36.9365 18.9033C37.1547 19.3989 37.1774 19.5466 37.0282 19.4999C36.9747 19.4832 36.8454 19.4117 36.7408 19.3412C36.6363 19.2707 36.4416 19.1709 36.3083 19.1193C35.5614 18.8304 35.0283 18.9117 34.0965 19.4562C32.3798 20.4593 30.7972 22.064 30.3752 23.2296C30.2007 23.7115 30.285 24.2158 30.6571 24.9158L30.8025 25.1892L30.5144 25.4787C30.3561 25.638 29.9306 26.0237 29.5691 26.3359C28.5557 27.211 28.3622 27.47 28.3971 27.905C28.4355 28.3825 28.7795 28.7496 29.2417 28.8062C29.6253 28.8531 29.9008 28.6725 30.9163 27.7078C31.5417 27.1137 32.0446 26.6761 32.1018 26.6761C32.1191 26.6761 32.3173 26.7963 32.5424 26.9433C33.0421 27.2698 33.2839 27.3382 33.6645 27.2609C34.4288 27.1054 35.5562 26.3949 36.4694 25.493C37.1927 24.7786 37.9976 23.6959 38.3067 23.0215C38.4393 22.7322 38.4446 22.699 38.4403 22.1839C38.4368 21.7674 38.4158 21.5876 38.3465 21.3793L38.2572 21.1111L38.4546 20.9019L38.6331 20.996C38.7312 21.0477 38.9298 21.1691 39.0745 21.2657C39.4468 21.5144 39.7118 21.5678 40.1115 21.4745C40.9182 21.2862 42.0494 20.5458 42.9798 19.5969C43.6576 18.9057 44.3977 17.8949 44.6569 17.3064C44.9017 16.7505 44.9138 16.3566 44.7091 15.6015L44.6332 15.3216L44.8596 15.0877L45.0909 15.2206C45.2182 15.2936 45.4365 15.4261 45.5761 15.5149C45.999 15.7839 46.3217 15.7814 47.0185 15.5037C47.9649 15.1266 49.1464 14.1743 50.0243 13.0812C50.4936 12.4969 51.0238 11.6774 51.1409 11.3552C51.32 10.8626 51.3014 10.2897 51.0884 9.73978L50.9949 9.49832L51.5973 8.8902C51.9287 8.55572 52.8024 7.70869 53.539 7.00782C54.2755 6.307 54.9421 5.6468 55.0204 5.54078C55.2115 5.28193 55.2181 5.00677 55.04 4.73268C54.7969 4.35869 54.5258 4.28341 54.1439 4.48393ZM47.7813 10.6436C47.4983 10.2041 47.1335 9.34603 47.0919 9.02224C47.076 8.8982 47.0509 8.79879 47.0361 8.8013C46.5607 8.88229 45.7845 9.45505 44.8647 10.4036C44.2087 11.0802 43.8131 11.6232 43.759 11.9211C43.7205 12.1334 43.7947 12.3983 44.042 12.9313C44.3785 13.6564 44.663 13.9932 45.4121 14.5533C46.0569 15.0354 46.3634 15.1117 46.78 14.8935L47.0022 14.7771L46.7029 14.6136C46.2688 14.3765 46.053 14.2089 45.7063 13.8401C45.0815 13.1755 44.8249 12.7755 44.8249 12.4663C44.8249 12.2641 44.9364 12.1491 45.1325 12.1491C45.2874 12.1491 45.3678 12.2292 45.7328 12.7465C46.3465 13.6162 46.8798 14.0261 47.446 14.0633C47.6212 14.0748 47.7884 14.0565 47.9155 14.0117C48.1141 13.9418 48.6312 13.5957 48.6312 13.5327C48.6312 13.5142 48.4487 13.4071 48.2255 13.295C47.8802 13.1214 47.7634 13.0316 47.4412 12.6925C47.0442 12.2745 46.8146 11.9619 46.8146 11.8394C46.8146 11.7299 46.9339 11.5759 47.0787 11.4985C47.2023 11.4325 47.2139 11.4347 47.3465 11.5497C47.4226 11.6159 47.6115 11.8173 47.7662 11.9974C48.2617 12.5744 48.6731 12.8196 49.1458 12.8196H49.3597L49.5794 12.5074C49.7002 12.3357 49.7991 12.176 49.7991 12.1525C49.7991 12.129 49.6376 12.0589 49.4401 11.9966C48.8095 11.7979 48.2093 11.3083 47.7813 10.6436ZM44.3536 14.5938L44.1912 14.4218C44.1018 14.3273 44.0181 14.2504 44.0051 14.251C43.9144 14.2549 42.9061 15.1895 42.7459 15.4181C42.6644 15.5343 42.6645 15.5372 42.7524 15.6527C42.899 15.8453 43.048 15.8109 43.3634 15.5116C43.513 15.3697 43.797 15.1051 43.9945 14.9237L44.3536 14.5938ZM40.6724 14.8294C40.6724 14.7605 40.6606 14.6724 40.6462 14.6335C40.6317 14.5946 40.6074 14.564 40.5921 14.5654C40.5549 14.5688 39.7503 15.0823 39.481 15.2745C38.5013 15.9737 37.5823 17.0061 37.36 17.6571C37.304 17.8211 37.3047 17.8694 37.3662 18.0879C37.4042 18.2232 37.5143 18.4962 37.6107 18.6945C38.0384 19.5738 38.6115 20.2091 39.3171 20.5859C39.834 20.8619 40.0038 20.8812 40.369 20.7056L40.6063 20.5914L40.196 20.3599C39.858 20.1691 39.6978 20.0378 39.2864 19.614C38.4086 18.7098 38.2021 18.2304 38.5802 17.9743C38.684 17.9041 38.6994 17.9042 38.8274 17.9767C38.9024 18.0192 39.0308 18.1485 39.1127 18.2639C39.5117 18.827 39.6219 18.9616 39.9543 19.2913C40.3949 19.7283 40.6579 19.853 41.1482 19.8569C41.5222 19.86 41.7568 19.7645 42.0614 19.4852L42.2445 19.3172L41.835 19.1114C41.3772 18.8812 40.9204 18.4825 40.5998 18.0332C40.3813 17.7269 40.3604 17.5631 40.5191 17.3991C40.7219 17.1896 40.8141 17.236 41.3629 17.8242C41.9377 18.4401 42.1581 18.5753 42.6496 18.6132L42.9433 18.6359L43.1526 18.3181C43.2677 18.1434 43.3518 17.9732 43.3395 17.9399C43.3271 17.9067 43.2398 17.8659 43.1455 17.8495C42.6838 17.7688 41.9736 17.2485 41.5356 16.67C41.1412 16.1491 40.6724 15.1495 40.6724 14.8294ZM37.8935 20.4228C37.8996 20.4073 37.8447 20.3194 37.7714 20.2276C37.6982 20.1358 37.6154 20.0617 37.5874 20.063C37.4875 20.0675 36.5637 20.9329 36.382 21.1922L36.2939 21.318L36.3928 21.4269C36.5217 21.5687 36.6525 21.5646 36.8303 21.4133C37.0695 21.2097 37.8817 20.453 37.8935 20.4228ZM34.3134 20.6641C34.3131 20.5904 34.3011 20.4848 34.2868 20.4295C34.2724 20.3741 34.2483 20.3289 34.2332 20.3289C34.165 20.3289 33.2097 20.9445 32.8745 21.2045C32.1116 21.7962 31.3802 22.6087 31.1114 23.1632C30.8808 23.6391 30.9502 24.0316 31.4026 24.8111C31.778 25.4578 32.3583 26.0211 33.0638 26.4238C33.4114 26.6222 33.6278 26.635 33.9572 26.4765C34.0821 26.4165 34.1842 26.3554 34.1842 26.341C34.1842 26.3266 34.0626 26.2555 33.9139 26.183C33.3576 25.912 32.938 25.5178 32.3209 24.6861C31.9184 24.1435 31.891 23.8576 32.2301 23.7354C32.4237 23.6657 32.5238 23.7438 32.9073 24.2636C33.9554 25.6842 34.7292 25.9806 35.6201 25.3028L35.8882 25.0989L35.5012 24.9077C35.0885 24.7038 34.7165 24.4004 34.3531 23.9713C34.0274 23.5866 33.9664 23.3354 34.1546 23.1527C34.3576 22.9556 34.4584 23.0077 35.0033 23.5905C35.5693 24.1959 35.8105 24.3463 36.2776 24.385L36.5447 24.4071L36.7216 24.1671C36.9416 23.8686 37.0144 23.7256 36.9674 23.6848C36.9473 23.6675 36.8141 23.6172 36.6714 23.5732C35.8741 23.3273 35.2015 22.6922 34.7126 21.7234C34.4482 21.1994 34.3143 20.8441 34.3134 20.6641ZM31.5523 26.1728L31.3888 25.9998C31.299 25.9047 31.2147 25.8276 31.2017 25.8285C31.1887 25.8295 31.0126 25.9818 30.8104 26.167C30.6082 26.3522 30.1688 26.7428 29.8341 27.0351C29.1839 27.6028 29.0334 27.7983 29.1191 27.9638C29.1759 28.0736 29.345 28.133 29.4411 28.0769C29.5026 28.041 30.3605 27.271 31.1701 26.525L31.5523 26.1728Z" fill="#1D1D1B"/>
<path d="M33.013 21.6217C32.8444 21.796 32.8507 21.9483 33.0403 22.2759C33.3288 22.7743 33.5497 22.9164 33.7644 22.7419C33.8542 22.6689 33.8813 22.6085 33.8805 22.4823C33.8787 22.1658 33.5995 21.688 33.3429 21.5621L33.3339 21.5577C33.2463 21.5147 33.2024 21.4932 33.1632 21.5001C33.1239 21.5071 33.0894 21.5428 33.0202 21.6143L33.013 21.6217Z" fill="#1D1D1B"/>
<path d="M39.4505 15.7732C39.361 15.8271 39.245 16.0446 39.245 16.1585C39.245 16.2028 39.3417 16.3949 39.4598 16.5854C39.7211 17.0068 39.9035 17.1282 40.0878 17.0035C40.2548 16.8903 40.2994 16.7577 40.2429 16.5412C40.1796 16.2982 39.95 15.9524 39.7685 15.8268C39.6056 15.7139 39.5613 15.7065 39.4505 15.7732Z" fill="#1D1D1B"/>
<path d="M45.7781 10.0567C45.6678 10.1792 45.6668 10.3712 45.7754 10.6185C45.9658 11.0519 46.2618 11.3002 46.4839 11.2129C46.7148 11.1222 46.7392 10.9047 46.5618 10.5172C46.3407 10.0343 45.9862 9.82596 45.7781 10.0567Z" fill="#1D1D1B"/>
<path d="M0.0131923 37.0461H7.53948V35.124H2.65172V28.7769H0.0131923V37.0461Z" fill="#1D1D1B"/>
<path fill-rule="evenodd" clip-rule="evenodd" d="M11.5405 30.6365C9.66388 30.7536 8.75852 31.2801 8.47079 32.4217C8.43437 32.5662 8.40457 32.7003 8.40457 32.7197C8.40457 32.7392 8.93794 32.755 9.58983 32.755H10.7751L10.8168 32.6315C10.8828 32.4358 11.0892 32.2123 11.2878 32.1215C11.7479 31.9112 12.8478 31.9253 13.3176 32.1476C13.6389 32.2996 13.7531 32.5551 13.6386 32.866C13.5594 33.0813 13.3909 33.1134 11.7371 33.2284C9.81116 33.3622 9.36503 33.4438 8.7897 33.7674C8.21554 34.0903 7.9218 34.8001 8.01964 35.628C8.14525 36.6907 8.98162 37.2173 10.672 37.298C11.9466 37.3588 13.0583 37.1127 13.6167 36.6459L13.7898 36.5013L13.838 36.7235C13.8645 36.8457 13.8997 36.9683 13.9162 36.9959C13.9372 37.031 14.2965 37.0461 15.1116 37.0461C15.7525 37.0461 16.2769 37.0411 16.2768 37.0349C16.2768 37.0287 16.2334 36.9131 16.1803 36.7779C16.0863 36.5385 16.0831 36.4759 16.0613 34.3865L16.039 32.241L15.9149 31.9633C15.7552 31.6062 15.3807 31.231 15.0124 31.0592C14.6808 30.9045 14.1292 30.7611 13.6384 30.7019C13.2248 30.652 11.9361 30.6118 11.5405 30.6365ZM13.4143 35.3329C13.6402 35.0945 13.7268 34.8756 13.7567 34.4676C13.7697 34.2903 13.7821 34.2023 13.7465 34.1688C13.7079 34.1325 13.6128 34.1603 13.4005 34.2081C13.2577 34.2403 12.703 34.3201 12.1677 34.3854C11.6324 34.4507 11.124 34.523 11.0379 34.5461C10.4359 34.7072 10.4056 35.4619 10.9893 35.7562C11.1545 35.8394 11.283 35.8627 11.6487 35.8755C12.4121 35.9023 13.065 35.7016 13.4143 35.3329Z" fill="#1D1D1B"/>
<path fill-rule="evenodd" clip-rule="evenodd" d="M19.0452 37.2696H21.727V34.5499L23.7491 34.5319C25.6804 34.5147 25.7855 34.5095 26.0883 34.4156C27.0216 34.126 27.5732 33.552 27.8126 32.6209C27.9051 32.261 27.9155 31.3263 27.831 30.9671C27.6174 30.0596 27.0533 29.4614 26.1386 29.1726L25.8145 29.0702L19.0452 29.0415V37.2696ZM25.1357 31.8821C25.1688 31.2643 24.9537 30.8939 24.5039 30.7943C24.3624 30.763 23.7877 30.7436 23.0008 30.7436H21.727V32.8042L24.6099 32.7774L24.7837 32.6584C25.0107 32.5032 25.1146 32.2738 25.1357 31.8821Z" fill="#1D1D1B"/>
<path d="M32.9543 30.9493C32.3644 31.0968 31.736 31.5204 31.393 32.0018L31.1997 32.2732V31.0118H28.8639V37.2696H31.2429V35.9308C31.2429 34.4668 31.2656 34.262 31.4719 33.8576C31.7633 33.2863 32.3101 33.0252 33.218 33.0239C33.5983 33.0233 34.1454 33.096 34.4071 33.1818C34.4834 33.2068 34.487 33.1564 34.487 32.0704V30.9328L34.3897 30.9059C34.2045 30.8546 33.2133 30.8846 32.9543 30.9493Z" fill="#1D1D1B"/>
<path d="M35.2656 37.2696H37.6446V31.0118H35.2656V37.2696Z" fill="#1D1D1B"/>
<path d="M35.2656 30.2966H37.6446V28.8216H35.2656V30.2966Z" fill="#1D1D1B"/>
<path d="M42.8508 30.9663C42.3858 31.0923 41.9587 31.3334 41.485 31.7374L41.2812 31.9113L41.2564 31.0341L38.9422 31.0103V37.2696H41.3177L41.3429 33.4926L41.4516 33.2914C41.6493 32.9255 42.0874 32.7103 42.6348 32.7103C43.1066 32.7103 43.4889 32.9259 43.6111 33.2608C43.6409 33.3425 43.657 34.0678 43.657 35.3281V37.2696H46.0317L46.0576 33.4926L46.1663 33.2914C46.3641 32.9255 46.8022 32.7103 47.3495 32.7103C47.8213 32.7103 48.2036 32.9259 48.3258 33.2608C48.3556 33.3425 48.3717 34.0678 48.3717 35.3281V37.2696H50.7507V34.9323C50.7507 32.4386 50.7427 32.3275 50.5307 31.8982C50.4809 31.7972 50.3471 31.6184 50.2334 31.501C49.8229 31.0768 49.2392 30.8777 48.4062 30.8777C47.4184 30.8777 46.8182 31.0991 46.066 31.741L45.858 31.9184L45.7887 31.8115C45.6649 31.6204 45.3172 31.3035 45.0933 31.1776C44.5622 30.8789 43.5318 30.7818 42.8508 30.9663Z" fill="#1D1D1B"/>
<path fill-rule="evenodd" clip-rule="evenodd" d="M54.5572 30.9257C53.1764 31.1011 52.3874 31.6853 52.1615 32.6992L52.0993 32.9785H54.4629L54.5595 32.7723C54.674 32.5279 54.9368 32.3367 55.2556 32.2661C55.5372 32.2037 56.3953 32.2053 56.6853 32.2688C56.972 32.3316 57.2128 32.4556 57.3009 32.5856C57.3978 32.7286 57.3877 33.0309 57.2813 33.1706C57.1613 33.3284 56.952 33.3635 55.6385 33.4464C53.8102 33.5618 53.3452 33.6263 52.8269 33.8362C52.0147 34.165 51.6687 34.7367 51.7108 35.6808C51.7582 36.7437 52.4238 37.315 53.8207 37.4914C54.2931 37.5511 55.055 37.5505 55.5795 37.4901C56.3511 37.4012 56.8817 37.2157 57.2934 36.8908L57.4892 36.7364L57.6066 37.2472L60 37.2709L59.9212 37.1026C59.7697 36.7783 59.7477 36.4506 59.7477 34.5164C59.7477 32.7757 59.7412 32.6073 59.664 32.351C59.4465 31.6291 58.8292 31.2011 57.6931 30.9846C57.2372 30.8978 55.0937 30.8575 54.5572 30.9257ZM57.1256 35.5564C57.3508 35.3236 57.4552 35.0286 57.4552 34.6242C57.4552 34.4812 57.4405 34.3659 57.4227 34.368C57.4049 34.3701 57.3319 34.3901 57.2605 34.4124C57.1892 34.4347 56.5895 34.5231 55.928 34.6088C55.2094 34.7019 54.6664 34.7935 54.5789 34.8365C54.1397 35.0518 54.177 35.7062 54.6436 35.9728C54.8129 36.0695 54.9031 36.086 55.3357 36.0994C56.1587 36.1248 56.7488 35.9458 57.1256 35.5564Z" fill="#1D1D1B"/>
<path d="M5.43804 12.4285C5.07042 12.944 4.26563 14.2216 3.89481 14.8783C2.66084 17.0638 1.70661 19.3785 1.03045 21.8263C0.534712 23.6209 0.127687 25.9953 0.028461 27.6712L0 28.1522L0.298542 28.0356C0.46278 27.9715 0.713915 27.8737 0.856655 27.8183L1.11618 27.7177L1.1491 27.4092C1.34483 25.5743 1.53376 24.4246 1.86829 23.0331C2.71197 19.5239 4.21178 16.16 6.23427 13.2409L6.45336 12.9246L6.07639 12.5369C5.86907 12.3236 5.68546 12.1491 5.66837 12.1491C5.65124 12.1491 5.54761 12.2748 5.43804 12.4285Z" fill="#1D1D1B"/>
<path d="M10.3712 6.9705C9.78464 7.47912 8.73611 8.46762 8.32186 8.90254L8.04447 9.1937L8.40223 9.59867C8.59899 9.82136 8.77245 10.0031 8.78771 10.0024C8.80298 10.0018 9.06852 9.7481 9.37779 9.43865C9.8497 8.96646 10.8898 7.99726 11.2493 7.69474L11.3473 7.61223L11.1267 7.07585C11.0053 6.78084 10.9022 6.53545 10.8975 6.53058C10.8927 6.52566 10.6559 6.72363 10.3712 6.9705Z" fill="#1D1D1B"/>
<path d="M28.0854 0.0213399C24.2074 0.131164 20.329 1.08163 16.6878 2.81454C15.6923 3.28834 13.9844 4.25677 13.9844 4.34751C13.9844 4.39605 14.3083 5.2818 14.354 5.35818C14.3657 5.37776 14.5687 5.27509 14.8051 5.13C15.9136 4.44983 17.3707 3.71378 18.6434 3.19108C27.6644 -0.513878 37.918 0.888488 45.673 6.8879L46.2833 7.36L47.3597 6.79506L46.9249 6.43881C44.5437 4.48782 41.6083 2.80895 38.726 1.74956C36.4757 0.922413 34.1878 0.396448 31.762 0.148462C31.0704 0.077794 29.2143 -0.0129437 28.7558 0.00153855C28.6131 0.00605308 28.3114 0.0149481 28.0854 0.0213399Z" fill="#1D1D1B"/>
<path d="M51.7651 11.7525C51.7187 11.8593 51.5889 12.1031 51.4767 12.2942L51.2727 12.6418L51.6095 13.1218C53.3491 15.6006 54.7561 18.5091 55.6365 21.4464C56.0702 22.8934 56.4999 24.9116 56.639 26.1555C56.6745 26.4734 56.7129 26.6486 56.7503 26.6634C56.8078 26.6862 57.7448 26.4811 57.7882 26.4362C57.8211 26.4022 57.6472 25.1755 57.4927 24.3517C57.3357 23.5145 56.9348 21.909 56.6388 20.9323C55.914 18.5402 54.7938 16.0695 53.4309 13.8568C53.0738 13.2772 52.2454 12.0587 51.9814 11.7249L51.8495 11.5582L51.7651 11.7525Z" fill="#1D1D1B"/>
<path d="M55.7403 39.7859L55.2148 39.8776L54.9876 40.4844C53.6553 44.0417 51.6008 47.3336 48.9773 50.1153C42.9017 56.557 34.4635 59.6756 25.8146 58.6759C16.4913 57.5982 8.2995 51.7064 4.03811 43.0133C3.80912 42.5462 3.50725 41.8872 3.36728 41.5488C3.17228 41.0774 3.09685 40.9384 3.04447 40.954C3.00688 40.9652 2.75864 41.0272 2.49284 41.0918L2.00956 41.2092L2.17505 41.6196C2.84537 43.2818 3.66725 44.8547 4.74844 46.5445C7.97686 51.5902 12.6337 55.5351 18.0408 57.8047C23.2859 60.0063 29.1062 60.5692 34.6953 59.4154C37.2241 58.8934 39.4846 58.091 41.8619 56.8716C44.7032 55.4143 46.9909 53.7333 49.2537 51.4401C52.4586 48.1921 54.8247 44.3897 56.3061 40.1068C56.322 40.0609 56.3369 40.0195 56.3503 39.9824L56.3505 39.982C56.4019 39.8398 56.431 39.7594 56.4041 39.7217C56.3691 39.6728 56.2395 39.6962 55.9415 39.7501L55.941 39.7502L55.9388 39.7505C55.8795 39.7613 55.8135 39.7732 55.7403 39.7859Z" fill="#1D1D1B"/>
</svg>
